# xmcd
# 
# Track frame offsets:
#     150
#     11544
#     22390
#     35324
#     49043
#     60488
#     71711
#     82812
#     100004
#     111964
#     124713
#     135283
#     148720
#     158225
#     179324
#     190782
#     210384
#     226533
#     244169
#     260002
# 
# Disc length: 3672
# 
# Revision: 1
# Processed by: cddbd v1.5.2PL0 Copyright (c) Steve Scherf et al.
# Submitted via: fre:ac v1.0.17
# 
DISCID=070e5614
DTITLE=Willie Nelson - The Essential Willie Nelson [CD1/2)
DYEAR=2003
DGENRE=Country
TTITLE0=Night Life
TTITLE1=Hello Walls
TTITLE2=Crazy
TTITLE3=Funny How Time Slips Away
TTITLE4=I Never Cared For You
TTITLE5=The Party's Over
TTITLE6=Good Times
TTITLE7=Me And Paul
TTITLE8=Shotgun Willie
TTITLE9=Bloody Mary Morning
TTITLE10=Blue Eyes Crying in The Rain
TTITLE11=Good Hearted Woman (Waylon and Willie)
TTITLE12=If You've Got The Money, I've Got The Time
TTITLE13=Uncloudy Day
TTITLE14=Mammas Don't Let Your Babies Grow up to be Cowboys (With Waylon Jennings)
TTITLE15=Georgia on my Mind
TTITLE16=Blue Skies
TTITLE17=All of Me
TTITLE18=Whiskey River (Live)
TTITLE19=Stay a Little Longer (Live)
EXTD=
EXTT0=
EXTT1=
EXTT2=
EXTT3=
EXTT4=
EXTT5=
EXTT6=
EXTT7=
EXTT8=
EXTT9=
EXTT10=
EXTT11=
EXTT12=
EXTT13=
EXTT14=
EXTT15=
EXTT16=
EXTT17=
EXTT18=
EXTT19=
PLAYORDER=
